<svg width="565" height="138" viewBox="0 0 565 138" fill="none" xmlns="http://www.w3.org/2000/svg">
<g clip-path="url(#clip0_2001_181)">
<path d="M50.64 38.1C48.78 41.53 45.88 44.29 41.93 46.39C37.98 48.49 32.99 49.54 26.97 49.54H14.69V77.67H0V4.41H26.97C32.64 4.41 37.47 5.39 41.45 7.35C45.44 9.31 48.43 12 50.42 15.43C52.41 18.86 53.41 22.74 53.41 27.08C53.41 31 52.48 34.67 50.63 38.1M35.37 34.89C37.33 33.04 38.31 30.43 38.31 27.07C38.31 19.93 34.32 16.36 26.35 16.36H14.7V37.66H26.35C30.41 37.66 33.42 36.73 35.37 34.88" fill="white"/>
<path d="M75.46 0H60.77V77.66H75.46V0Z" fill="white"/>
<path d="M139.3 19.52V77.66H124.5V70.31C122.61 72.83 120.14 74.81 117.1 76.24C114.06 77.67 110.75 78.39 107.18 78.39C102.63 78.39 98.61 77.43 95.11 75.5C91.61 73.58 88.87 70.74 86.87 67C84.88 63.26 83.88 58.8 83.88 53.62V19.52H98.57V51.53C98.57 56.15 99.72 59.7 102.03 62.18C104.34 64.66 107.49 65.91 111.47 65.91C115.45 65.91 118.71 64.67 121.02 62.18C123.33 59.7 124.48 56.15 124.48 51.53V19.52H139.28H139.3Z" fill="white"/>
<path d="M160.32 76.03C156.54 74.32 153.55 71.99 151.35 69.05C149.15 66.11 147.94 62.86 147.73 59.29H162.53C162.81 61.53 163.91 63.38 165.83 64.85C167.75 66.32 170.15 67.05 173.02 67.05C175.89 67.05 178.01 66.49 179.58 65.37C181.15 64.25 181.94 62.82 181.94 61.07C181.94 59.18 180.98 57.76 179.05 56.82C177.13 55.88 174.06 54.84 169.87 53.72C165.53 52.67 161.98 51.59 159.22 50.47C156.45 49.35 154.08 47.64 152.08 45.33C150.09 43.02 149.09 39.91 149.09 35.99C149.09 32.77 150.02 29.83 151.87 27.17C153.72 24.51 156.38 22.41 159.85 20.87C163.31 19.33 167.39 18.56 172.08 18.56C179.01 18.56 184.53 20.29 188.66 23.76C192.79 27.22 195.06 31.89 195.48 37.77H181.42C181.21 35.46 180.25 33.62 178.53 32.26C176.82 30.89 174.52 30.21 171.66 30.21C169 30.21 166.95 30.7 165.52 31.68C164.09 32.66 163.37 34.03 163.37 35.77C163.37 37.73 164.35 39.22 166.31 40.23C168.27 41.25 171.31 42.28 175.44 43.33C179.64 44.38 183.1 45.47 185.83 46.58C188.56 47.7 190.92 49.43 192.91 51.77C194.9 54.12 195.93 57.21 196.01 61.06C196.01 64.42 195.08 67.43 193.23 70.08C191.37 72.74 188.72 74.82 185.25 76.32C181.79 77.82 177.75 78.58 173.13 78.58C168.51 78.58 164.1 77.72 160.33 76.01" fill="white"/>
<path d="M258.52 75.77C254.43 74.02 251.19 71.5 248.81 68.21C246.43 64.92 245.21 61.04 245.14 56.56H260.88C261.09 59.57 262.15 61.95 264.08 63.7C266 65.45 268.65 66.32 272 66.32C275.35 66.32 278.12 65.5 280.08 63.85C282.04 62.21 283.02 60.06 283.02 57.4C283.02 55.23 282.35 53.45 281.03 52.05C279.7 50.65 278.04 49.55 276.04 48.74C274.05 47.94 271.3 47.04 267.8 46.06C263.04 44.66 259.18 43.28 256.2 41.92C253.22 40.56 250.67 38.49 248.54 35.73C246.4 32.97 245.34 29.28 245.34 24.66C245.34 20.32 246.42 16.55 248.59 13.33C250.76 10.11 253.8 7.64999 257.72 5.92999C261.64 4.21999 266.11 3.35999 271.15 3.35999C278.7 3.35999 284.85 5.19999 289.57 8.86999C294.29 12.54 296.9 17.67 297.39 24.25H281.23C281.09 21.73 280.02 19.65 278.03 18.01C276.04 16.37 273.39 15.54 270.11 15.54C267.24 15.54 264.95 16.27 263.23 17.74C261.51 19.21 260.66 21.34 260.66 24.14C260.66 26.1 261.31 27.73 262.6 29.02C263.89 30.32 265.5 31.37 267.43 32.17C269.35 32.98 272.06 33.9 275.56 34.95C280.32 36.35 284.2 37.75 287.21 39.15C290.22 40.55 292.81 42.65 294.98 45.45C297.15 48.25 298.23 51.92 298.23 56.47C298.23 60.39 297.22 64.03 295.19 67.38C293.16 70.74 290.19 73.42 286.27 75.41C282.35 77.4 277.7 78.4 272.31 78.4C267.2 78.4 262.6 77.53 258.51 75.78" fill="white"/>
<path d="M308.64 32.74C310.98 28.19 314.17 24.7 318.19 22.25C322.21 19.8 326.71 18.58 331.68 18.58C336.02 18.58 339.81 19.46 343.07 21.2C346.32 22.95 348.93 25.15 350.89 27.81V19.52H365.69V77.66H350.89V69.16C349 71.89 346.39 74.14 343.07 75.93C339.75 77.71 335.92 78.61 331.58 78.61C326.68 78.61 322.22 77.35 318.2 74.83C314.18 72.31 310.99 68.76 308.65 64.18C306.3 59.6 305.13 54.33 305.13 48.39C305.13 42.45 306.3 37.3 308.65 32.75M348.78 39.41C347.38 36.86 345.49 34.9 343.11 33.53C340.73 32.17 338.18 31.48 335.45 31.48C332.72 31.48 330.2 32.15 327.89 33.47C325.58 34.8 323.71 36.74 322.28 39.29C320.85 41.85 320.13 44.87 320.13 48.37C320.13 51.87 320.85 54.93 322.28 57.55C323.71 60.17 325.6 62.19 327.95 63.58C330.29 64.98 332.79 65.68 335.45 65.68C338.11 65.68 340.73 65 343.11 63.63C345.49 62.26 347.38 60.31 348.78 57.75C350.18 55.2 350.88 52.14 350.88 48.57C350.88 45 350.18 41.94 348.78 39.39" fill="white"/>
<path d="M389.55 0H374.86V77.66H389.55V0Z" fill="white"/>
<path d="M454.06 19.52V77.66H439.26V70.31C437.37 72.83 434.9 74.81 431.86 76.24C428.82 77.67 425.51 78.39 421.94 78.39C417.39 78.39 413.37 77.43 409.87 75.5C406.37 73.58 403.63 70.74 401.63 67C399.64 63.26 398.64 58.8 398.64 53.62V19.52H413.33V51.53C413.33 56.15 414.48 59.7 416.79 62.18C419.1 64.66 422.25 65.91 426.24 65.91C430.23 65.91 433.48 64.67 435.79 62.18C438.1 59.7 439.25 56.15 439.25 51.53V19.52H454.05H454.06Z" fill="white"/>
<path d="M554.89 53H512.39C512.74 57.2 514.21 60.49 516.8 62.87C519.39 65.25 522.57 66.44 526.35 66.44C531.81 66.44 535.69 64.1 538 59.41H553.85C552.17 65.01 548.95 69.61 544.2 73.21C539.44 76.81 533.6 78.62 526.67 78.62C521.07 78.62 516.05 77.38 511.61 74.89C507.16 72.41 503.7 68.89 501.22 64.34C498.74 59.79 497.49 54.54 497.49 48.6C497.49 42.66 498.71 37.3 501.16 32.75C503.61 28.2 507.04 24.71 511.44 22.26C515.85 19.81 520.92 18.59 526.66 18.59C532.4 18.59 537.14 19.78 541.51 22.16C545.88 24.54 549.28 27.92 551.69 32.29C554.1 36.66 555.31 41.68 555.31 47.35C555.31 49.45 555.17 51.34 554.89 53.02M540.09 43.13C540.02 39.35 538.66 36.33 536 34.05C533.34 31.78 530.09 30.64 526.24 30.64C522.6 30.64 519.54 31.74 517.06 33.94C514.58 36.14 513.05 39.21 512.49 43.12H540.09V43.13Z" fill="white"/>
<path d="M72.28 120.04C73.77 120.83 74.93 121.94 75.74 123.37C76.56 124.8 76.97 126.45 76.97 128.32C76.97 130.19 76.56 131.81 75.74 133.25C74.92 134.69 73.76 135.8 72.26 136.59C70.76 137.38 69.02 137.78 67.05 137.78H59.96V118.86H67.05C69.04 118.86 70.79 119.26 72.28 120.05M70.82 132.36C71.79 131.41 72.28 130.06 72.28 128.32C72.28 126.58 71.79 125.22 70.82 124.25C69.85 123.28 68.49 122.8 66.75 122.8H64.57V133.8H66.75C68.49 133.8 69.85 133.32 70.82 132.37" fill="white"/>
<path d="M89.56 122.55V126.37H95.73V129.93H89.56V134.08H96.54V137.78H84.95V118.85H96.54V122.55H89.56Z" fill="white"/>
<path d="M108.05 137.29C106.95 136.84 106.08 136.18 105.42 135.3C104.76 134.42 104.42 133.36 104.38 132.12H109.29C109.36 132.82 109.6 133.36 110.02 133.72C110.43 134.09 110.97 134.27 111.64 134.27C112.31 134.27 112.86 134.11 113.26 133.8C113.66 133.49 113.85 133.05 113.85 132.49C113.85 132.02 113.69 131.64 113.38 131.33C113.07 131.02 112.68 130.77 112.22 130.57C111.76 130.37 111.11 130.15 110.27 129.9C109.05 129.52 108.05 129.15 107.28 128.77C106.51 128.39 105.84 127.84 105.29 127.1C104.73 126.36 104.45 125.4 104.45 124.22C104.45 122.46 105.09 121.08 106.36 120.08C107.63 119.08 109.3 118.58 111.35 118.58C113.4 118.58 115.11 119.08 116.39 120.08C117.66 121.08 118.35 122.47 118.44 124.24H113.45C113.41 123.63 113.19 123.15 112.78 122.8C112.37 122.45 111.84 122.27 111.19 122.27C110.63 122.27 110.18 122.42 109.84 122.72C109.5 123.02 109.33 123.44 109.33 124C109.33 124.61 109.62 125.09 110.19 125.43C110.76 125.77 111.66 126.14 112.89 126.53C114.11 126.94 115.1 127.34 115.87 127.72C116.63 128.1 117.29 128.64 117.85 129.36C118.41 130.08 118.69 131.01 118.69 132.14C118.69 133.27 118.42 134.2 117.87 135.08C117.32 135.96 116.53 136.66 115.48 137.18C114.44 137.7 113.21 137.96 111.79 137.96C110.37 137.96 109.17 137.74 108.07 137.29" fill="white"/>
<path d="M127.32 123.29C128.13 121.83 129.26 120.69 130.7 119.87C132.15 119.05 133.79 118.64 135.62 118.64C137.87 118.64 139.79 119.23 141.39 120.42C142.99 121.61 144.06 123.22 144.6 125.27H139.53C139.15 124.48 138.62 123.88 137.93 123.46C137.24 123.05 136.45 122.84 135.57 122.84C134.15 122.84 133 123.33 132.12 124.32C131.24 125.31 130.8 126.63 130.8 128.28C130.8 129.93 131.24 131.26 132.12 132.24C133 133.23 134.15 133.72 135.57 133.72C136.45 133.72 137.24 133.51 137.93 133.1C138.62 132.69 139.16 132.09 139.53 131.3H144.6C144.06 133.35 142.99 134.96 141.39 136.14C139.79 137.32 137.87 137.91 135.62 137.91C133.79 137.91 132.15 137.5 130.7 136.68C129.25 135.86 128.13 134.73 127.32 133.27C126.51 131.81 126.11 130.15 126.11 128.28C126.11 126.41 126.51 124.74 127.32 123.28" fill="white"/>
<path d="M164.6 134.43H157.54L156.41 137.77H151.59L158.44 118.85H163.78L170.63 137.77H165.75L164.62 134.43H164.6ZM163.41 130.88L161.06 123.95L158.74 130.88H163.4H163.41Z" fill="white"/>
<path d="M195 137.78H190.39L182.68 126.11V137.78H178.07V118.85H182.68L190.39 130.58V118.85H195V137.78Z" fill="white"/>
<path d="M206.86 137.29C205.76 136.84 204.89 136.18 204.23 135.3C203.57 134.42 203.23 133.36 203.19 132.12H208.1C208.17 132.82 208.41 133.36 208.83 133.72C209.24 134.09 209.78 134.27 210.45 134.27C211.12 134.27 211.67 134.11 212.07 133.8C212.47 133.49 212.66 133.05 212.66 132.49C212.66 132.02 212.5 131.64 212.19 131.33C211.88 131.02 211.49 130.77 211.03 130.57C210.57 130.37 209.92 130.15 209.08 129.9C207.86 129.52 206.86 129.15 206.09 128.77C205.32 128.39 204.65 127.84 204.1 127.1C203.54 126.36 203.26 125.4 203.26 124.22C203.26 122.46 203.9 121.08 205.17 120.08C206.44 119.08 208.11 118.58 210.16 118.58C212.21 118.58 213.93 119.08 215.2 120.08C216.47 121.08 217.16 122.47 217.25 124.24H212.26C212.22 123.63 212 123.15 211.59 122.8C211.18 122.45 210.65 122.27 210 122.27C209.44 122.27 208.99 122.42 208.65 122.72C208.31 123.02 208.14 123.44 208.14 124C208.14 124.61 208.43 125.09 209 125.43C209.58 125.77 210.47 126.14 211.7 126.53C212.92 126.94 213.91 127.34 214.68 127.72C215.44 128.1 216.1 128.64 216.66 129.36C217.22 130.08 217.5 131.01 217.5 132.14C217.5 133.27 217.23 134.2 216.68 135.08C216.13 135.96 215.34 136.66 214.29 137.18C213.25 137.7 212.02 137.96 210.6 137.96C209.18 137.96 207.98 137.74 206.88 137.29" fill="white"/>
<path d="M229.75 136.73C228.27 135.9 227.09 134.75 226.22 133.27C225.35 131.79 224.91 130.12 224.91 128.27C224.91 126.42 225.34 124.76 226.22 123.28C227.09 121.81 228.27 120.66 229.75 119.83C231.23 119 232.86 118.59 234.64 118.59C236.42 118.59 238.05 119 239.53 119.83C241.01 120.66 242.18 121.81 243.03 123.28C243.88 124.75 244.31 126.42 244.31 128.27C244.31 130.12 243.88 131.79 243.02 133.27C242.16 134.75 240.99 135.91 239.52 136.73C238.05 137.56 236.42 137.97 234.64 137.97C232.86 137.97 231.23 137.56 229.75 136.73ZM238.27 132.25C239.18 131.24 239.63 129.91 239.63 128.26C239.63 126.61 239.18 125.25 238.27 124.26C237.36 123.26 236.15 122.76 234.65 122.76C233.15 122.76 231.91 123.25 231 124.24C230.09 125.23 229.64 126.57 229.64 128.26C229.64 129.95 230.09 131.27 231 132.26C231.91 133.26 233.12 133.76 234.65 133.76C236.18 133.76 237.37 133.26 238.27 132.25Z" fill="white"/>
<path d="M286.8 120.04C288.29 120.83 289.45 121.94 290.26 123.37C291.08 124.8 291.49 126.45 291.49 128.32C291.49 130.19 291.08 131.81 290.26 133.25C289.44 134.69 288.28 135.8 286.78 136.59C285.28 137.38 283.54 137.78 281.57 137.78H274.48V118.86H281.57C283.56 118.86 285.31 119.26 286.8 120.05M285.35 132.36C286.32 131.41 286.81 130.06 286.81 128.32C286.81 126.58 286.33 125.22 285.35 124.25C284.38 123.28 283.02 122.8 281.28 122.8H279.1V133.8H281.28C283.02 133.8 284.38 133.32 285.35 132.37" fill="white"/>
<path d="M304.08 122.55V126.37H310.25V129.93H304.08V134.08H311.06V137.78H299.47V118.85H311.06V122.55H304.08Z" fill="white"/>
<path d="M342.08 123.29C342.89 121.83 344.02 120.69 345.46 119.87C346.91 119.05 348.55 118.64 350.38 118.64C352.63 118.64 354.55 119.23 356.15 120.42C357.75 121.61 358.82 123.22 359.36 125.27H354.29C353.91 124.48 353.38 123.88 352.69 123.46C352 123.05 351.21 122.84 350.33 122.84C348.91 122.84 347.76 123.33 346.88 124.32C346 125.31 345.56 126.63 345.56 128.28C345.56 129.93 346 131.26 346.88 132.24C347.76 133.23 348.91 133.72 350.33 133.72C351.21 133.72 352 133.51 352.69 133.1C353.38 132.69 353.92 132.09 354.29 131.3H359.36C358.82 133.35 357.75 134.96 356.15 136.14C354.55 137.32 352.63 137.91 350.38 137.91C348.55 137.91 346.91 137.5 345.46 136.68C344.01 135.86 342.89 134.73 342.08 133.27C341.27 131.81 340.87 130.15 340.87 128.28C340.87 126.41 341.27 124.74 342.08 123.28" fill="white"/>
<path d="M379.36 134.43H372.3L371.17 137.77H366.35L373.2 118.85H378.54L385.39 137.77H380.51L379.38 134.43H379.36ZM378.17 130.88L375.83 123.95L373.51 130.88H378.17Z" fill="white"/>
<path d="M397.45 134.22H403.48V137.78H392.84V118.85H397.45V134.22Z" fill="white"/>
<path d="M415.69 118.85H411.08V137.77H415.69V118.85Z" fill="white"/>
<path d="M436.74 120.04C438.23 120.83 439.39 121.94 440.2 123.37C441.02 124.8 441.43 126.45 441.43 128.32C441.43 130.19 441.02 131.81 440.2 133.25C439.38 134.69 438.22 135.8 436.72 136.59C435.22 137.38 433.48 137.78 431.5 137.78H424.41V118.86H431.5C433.49 118.86 435.24 119.26 436.73 120.05M435.29 132.36C436.26 131.41 436.75 130.06 436.75 128.32C436.75 126.58 436.27 125.22 435.29 124.25C434.32 123.28 432.96 122.8 431.22 122.8H429.04V133.8H431.22C432.96 133.8 434.32 133.32 435.29 132.37" fill="white"/>
<path d="M461.19 134.43H454.13L453 137.77H448.18L455.03 118.85H460.37L467.22 137.77H462.34L461.21 134.43H461.19ZM460 130.88L457.66 123.95L455.34 130.88H460Z" fill="white"/>
<path d="M486.99 120.04C488.48 120.83 489.64 121.94 490.45 123.37C491.27 124.8 491.68 126.45 491.68 128.32C491.68 130.19 491.27 131.81 490.45 133.25C489.63 134.69 488.47 135.8 486.97 136.59C485.47 137.38 483.73 137.78 481.75 137.78H474.66V118.86H481.75C483.74 118.86 485.49 119.26 486.98 120.05M485.53 132.36C486.5 131.41 486.99 130.06 486.99 128.32C486.99 126.58 486.51 125.22 485.53 124.25C484.56 123.28 483.2 122.8 481.46 122.8H479.28V133.8H481.46C483.2 133.8 484.56 133.32 485.53 132.37" fill="white"/>
<path d="M553.83 17.14H551.98V8.28H555.61C557.65 8.28 558.82 9.36 558.82 11.11C558.82 12.25 558.23 13.23 557.21 13.63L559.08 17.15H556.98L555.33 13.91H553.84V17.15L553.83 17.14ZM553.83 12.56H555.43C556.36 12.56 556.91 12.03 556.91 11.15C556.91 10.27 556.33 9.74 555.41 9.74H553.83V12.57V12.56Z" fill="white"/>
<path d="M555.26 3.78C550.34 3.78 546.33 7.79 546.33 12.71C546.33 17.63 550.33 21.64 555.26 21.64C560.19 21.64 564.19 17.63 564.19 12.71C564.19 7.79 560.19 3.78 555.26 3.78ZM562.34 12.71C562.34 16.61 559.17 19.79 555.26 19.79C551.35 19.79 548.18 16.62 548.18 12.71C548.18 8.8 551.35 5.63 555.26 5.63C559.17 5.63 562.34 8.8 562.34 12.71Z" fill="white"/>
<path d="M495 10.35H484.65V0H469.85V10.35H459.51V25.15H469.85V35.49H484.65V25.15H495V10.35Z" fill="#00ACA9"/>
<path d="M234.98 43.64H223.82V32.48H217.02V43.64H205.86V50.44H217.02V61.59H223.82V50.44H234.98V43.64Z" fill="white"/>
<path d="M493.12 65.28H490.85C488.61 65.28 487.02 64.84 486.07 63.97C485.13 63.1 484.65 61.68 484.65 59.72V38.5H469.85V59.62C469.85 71.65 476.04 77.67 488.43 77.67H493.12V65.29V65.28Z" fill="white"/>
</g>
<defs>
<clipPath id="clip0_2001_181">
<rect width="564.19" height="137.96" fill="white"/>
</clipPath>
</defs>
</svg>
